<?xml version="1.0" encoding="UTF-8" standalone="no"?>
<!DOCTYPE svg PUBLIC "-//W3C//DTD SVG 1.1//EN"
 "http://www.w3.org/Graphics/SVG/1.1/DTD/svg11.dtd">
<!-- Generated by graphviz version 2.47.3 (20210619.1520)
 -->
<!-- Title: dependencies Pages: 1 -->
<svg width="202pt" height="174pt"
 viewBox="0.00 0.00 202.00 173.80" xmlns="http://www.w3.org/2000/svg" xmlns:xlink="http://www.w3.org/1999/xlink">
<g id="graph0" class="graph" transform="scale(1 1) rotate(0) translate(4 169.8)">
<title>dependencies</title>
<polygon fill="white" stroke="transparent" points="-4,4 -4,-169.8 198,-169.8 198,4 -4,4"/>
<text text-anchor="middle" x="97" y="-8.2" font-family="sans-serif" font-size="14.00">dependencies</text>
<g id="clust1" class="cluster">
<title>cluster_StudentsModule</title>
<polygon fill="none" stroke="black" stroke-dasharray="1,5" points="8,-32.8 8,-157.8 186,-157.8 186,-32.8 8,-32.8"/>
</g>
<g id="clust6" class="cluster">
<title>cluster_StudentsModule_providers</title>
<polygon fill="none" stroke="black" points="16,-40.8 16,-92.8 178,-92.8 178,-40.8 16,-40.8"/>
</g>
<!-- StudentsService -->
<g id="node1" class="node">
<title>StudentsService</title>
<ellipse fill="#fdb462" stroke="black" cx="97" cy="-66.8" rx="73.01" ry="18"/>
<text text-anchor="middle" x="97" y="-62.6" font-family="Times,serif" font-size="14.00">StudentsService</text>
</g>
<!-- StudentsModule -->
<g id="node2" class="node">
<title>StudentsModule</title>
<polygon fill="#8dd3c7" stroke="black" points="150.77,-149.8 147.77,-153.8 126.77,-153.8 123.77,-149.8 43.23,-149.8 43.23,-113.8 150.77,-113.8 150.77,-149.8"/>
<text text-anchor="middle" x="97" y="-127.6" font-family="Times,serif" font-size="14.00">StudentsModule</text>
</g>
<!-- StudentsService&#45;&gt;StudentsModule -->
<g id="edge1" class="edge">
<title>StudentsService&#45;&gt;StudentsModule</title>
<path fill="none" stroke="black" d="M97,-84.91C97,-84.91 97,-103.79 97,-103.79"/>
<polygon fill="black" stroke="black" points="93.5,-103.79 97,-113.79 100.5,-103.79 93.5,-103.79"/>
</g>
</g>
</svg>
