<?xml version="1.0" encoding="UTF-8" standalone="no"?>
<!DOCTYPE svg PUBLIC "-//W3C//DTD SVG 1.1//EN"
 "http://www.w3.org/Graphics/SVG/1.1/DTD/svg11.dtd">
<!-- Generated by graphviz version 2.47.3 (20210619.1520)
 -->
<!-- Title: dependencies Pages: 1 -->
<svg width="256pt" height="174pt"
 viewBox="0.00 0.00 256.00 173.80" xmlns="http://www.w3.org/2000/svg" xmlns:xlink="http://www.w3.org/1999/xlink">
<g id="graph0" class="graph" transform="scale(1 1) rotate(0) translate(4 169.8)">
<title>dependencies</title>
<polygon fill="white" stroke="transparent" points="-4,4 -4,-169.8 252,-169.8 252,4 -4,4"/>
<text text-anchor="middle" x="124" y="-8.2" font-family="sans-serif" font-size="14.00">dependencies</text>
<g id="clust1" class="cluster">
<title>cluster_SubjectTeacherModule</title>
<polygon fill="none" stroke="black" stroke-dasharray="1,5" points="8,-32.8 8,-157.8 240,-157.8 240,-32.8 8,-32.8"/>
</g>
<g id="clust6" class="cluster">
<title>cluster_SubjectTeacherModule_providers</title>
<polygon fill="none" stroke="black" points="16,-40.8 16,-92.8 232,-92.8 232,-40.8 16,-40.8"/>
</g>
<!-- SubjectTeacherService -->
<g id="node1" class="node">
<title>SubjectTeacherService</title>
<ellipse fill="#fdb462" stroke="black" cx="124" cy="-66.8" rx="100.09" ry="18"/>
<text text-anchor="middle" x="124" y="-62.6" font-family="Times,serif" font-size="14.00">SubjectTeacherService</text>
</g>
<!-- SubjectTeacherModule -->
<g id="node2" class="node">
<title>SubjectTeacherModule</title>
<polygon fill="#8dd3c7" stroke="black" points="197.11,-149.8 194.11,-153.8 173.11,-153.8 170.11,-149.8 50.89,-149.8 50.89,-113.8 197.11,-113.8 197.11,-149.8"/>
<text text-anchor="middle" x="124" y="-127.6" font-family="Times,serif" font-size="14.00">SubjectTeacherModule</text>
</g>
<!-- SubjectTeacherService&#45;&gt;SubjectTeacherModule -->
<g id="edge1" class="edge">
<title>SubjectTeacherService&#45;&gt;SubjectTeacherModule</title>
<path fill="none" stroke="black" d="M124,-84.91C124,-84.91 124,-103.79 124,-103.79"/>
<polygon fill="black" stroke="black" points="120.5,-103.79 124,-113.79 127.5,-103.79 120.5,-103.79"/>
</g>
</g>
</svg>
