<?xml version="1.0" encoding="UTF-8" standalone="no"?>
<!DOCTYPE svg PUBLIC "-//W3C//DTD SVG 1.1//EN"
 "http://www.w3.org/Graphics/SVG/1.1/DTD/svg11.dtd">
<!-- Generated by graphviz version 2.47.3 (20210619.1520)
 -->
<!-- Title: dependencies Pages: 1 -->
<svg width="952pt" height="174pt"
 viewBox="0.00 0.00 952.00 173.80" xmlns="http://www.w3.org/2000/svg" xmlns:xlink="http://www.w3.org/1999/xlink">
<g id="graph0" class="graph" transform="scale(1 1) rotate(0) translate(4 169.8)">
<title>dependencies</title>
<polygon fill="white" stroke="transparent" points="-4,4 -4,-169.8 948,-169.8 948,4 -4,4"/>
<text text-anchor="middle" x="472" y="-8.2" font-family="sans-serif" font-size="14.00">dependencies</text>
<g id="clust1" class="cluster">
<title>cluster_AppModule</title>
<polygon fill="none" stroke="black" stroke-dasharray="1,5" points="8,-32.8 8,-157.8 936,-157.8 936,-32.8 8,-32.8"/>
</g>
<g id="clust3" class="cluster">
<title>cluster_AppModule_imports</title>
<polygon fill="none" stroke="black" points="154,-40.8 154,-92.8 928,-92.8 928,-40.8 154,-40.8"/>
</g>
<g id="clust6" class="cluster">
<title>cluster_AppModule_providers</title>
<polygon fill="none" stroke="black" points="16,-40.8 16,-92.8 146,-92.8 146,-40.8 16,-40.8"/>
</g>
<!-- GroupsModule -->
<g id="node1" class="node">
<title>GroupsModule</title>
<polygon fill="#8dd3c7" stroke="black" points="920.26,-84.8 917.26,-88.8 896.26,-88.8 893.26,-84.8 819.74,-84.8 819.74,-48.8 920.26,-48.8 920.26,-84.8"/>
<text text-anchor="middle" x="870" y="-62.6" font-family="Times,serif" font-size="14.00">GroupsModule</text>
</g>
<!-- AppModule -->
<g id="node7" class="node">
<title>AppModule</title>
<polygon fill="#8dd3c7" stroke="black" points="530.66,-149.8 527.66,-153.8 506.66,-153.8 503.66,-149.8 447.34,-149.8 447.34,-113.8 530.66,-113.8 530.66,-149.8"/>
<text text-anchor="middle" x="489" y="-127.6" font-family="Times,serif" font-size="14.00">AppModule</text>
</g>
<!-- GroupsModule&#45;&gt;AppModule -->
<g id="edge1" class="edge">
<title>GroupsModule&#45;&gt;AppModule</title>
<path fill="none" stroke="black" d="M870,-85.09C870,-107.01 870,-140.8 870,-140.8 870,-140.8 540.86,-140.8 540.86,-140.8"/>
<polygon fill="black" stroke="black" points="540.86,-137.3 530.86,-140.8 540.86,-144.3 540.86,-137.3"/>
</g>
<!-- MarksModule -->
<g id="node2" class="node">
<title>MarksModule</title>
<polygon fill="#8dd3c7" stroke="black" points="801.81,-84.8 798.81,-88.8 777.81,-88.8 774.81,-84.8 706.19,-84.8 706.19,-48.8 801.81,-48.8 801.81,-84.8"/>
<text text-anchor="middle" x="754" y="-62.6" font-family="Times,serif" font-size="14.00">MarksModule</text>
</g>
<!-- MarksModule&#45;&gt;AppModule -->
<g id="edge2" class="edge">
<title>MarksModule&#45;&gt;AppModule</title>
<path fill="none" stroke="black" d="M754,-84.91C754,-104.14 754,-131.8 754,-131.8 754,-131.8 540.7,-131.8 540.7,-131.8"/>
<polygon fill="black" stroke="black" points="540.7,-128.3 530.7,-131.8 540.7,-135.3 540.7,-128.3"/>
</g>
<!-- StudentsModule -->
<g id="node3" class="node">
<title>StudentsModule</title>
<polygon fill="#8dd3c7" stroke="black" points="687.77,-84.8 684.77,-88.8 663.77,-88.8 660.77,-84.8 580.23,-84.8 580.23,-48.8 687.77,-48.8 687.77,-84.8"/>
<text text-anchor="middle" x="634" y="-62.6" font-family="Times,serif" font-size="14.00">StudentsModule</text>
</g>
<!-- StudentsModule&#45;&gt;AppModule -->
<g id="edge3" class="edge">
<title>StudentsModule&#45;&gt;AppModule</title>
<path fill="none" stroke="black" d="M634,-84.83C634,-101.2 634,-122.8 634,-122.8 634,-122.8 540.94,-122.8 540.94,-122.8"/>
<polygon fill="black" stroke="black" points="540.94,-119.3 530.94,-122.8 540.94,-126.3 540.94,-119.3"/>
</g>
<!-- SubjectTeacherModule -->
<g id="node4" class="node">
<title>SubjectTeacherModule</title>
<polygon fill="#8dd3c7" stroke="black" points="562.11,-84.8 559.11,-88.8 538.11,-88.8 535.11,-84.8 415.89,-84.8 415.89,-48.8 562.11,-48.8 562.11,-84.8"/>
<text text-anchor="middle" x="489" y="-62.6" font-family="Times,serif" font-size="14.00">SubjectTeacherModule</text>
</g>
<!-- SubjectTeacherModule&#45;&gt;AppModule -->
<g id="edge4" class="edge">
<title>SubjectTeacherModule&#45;&gt;AppModule</title>
<path fill="none" stroke="black" d="M489,-84.91C489,-84.91 489,-103.79 489,-103.79"/>
<polygon fill="black" stroke="black" points="485.5,-103.79 489,-113.79 492.5,-103.79 485.5,-103.79"/>
</g>
<!-- SubjectsModule -->
<g id="node5" class="node">
<title>SubjectsModule</title>
<polygon fill="#8dd3c7" stroke="black" points="397.49,-84.8 394.49,-88.8 373.49,-88.8 370.49,-84.8 290.51,-84.8 290.51,-48.8 397.49,-48.8 397.49,-84.8"/>
<text text-anchor="middle" x="344" y="-62.6" font-family="Times,serif" font-size="14.00">SubjectsModule</text>
</g>
<!-- SubjectsModule&#45;&gt;AppModule -->
<g id="edge5" class="edge">
<title>SubjectsModule&#45;&gt;AppModule</title>
<path fill="none" stroke="black" d="M344,-84.83C344,-101.2 344,-122.8 344,-122.8 344,-122.8 437.06,-122.8 437.06,-122.8"/>
<polygon fill="black" stroke="black" points="437.06,-126.3 447.06,-122.8 437.06,-119.3 437.06,-126.3"/>
</g>
<!-- TeachersModule -->
<g id="node6" class="node">
<title>TeachersModule</title>
<polygon fill="#8dd3c7" stroke="black" points="272.07,-84.8 269.07,-88.8 248.07,-88.8 245.07,-84.8 161.93,-84.8 161.93,-48.8 272.07,-48.8 272.07,-84.8"/>
<text text-anchor="middle" x="217" y="-62.6" font-family="Times,serif" font-size="14.00">TeachersModule</text>
</g>
<!-- TeachersModule&#45;&gt;AppModule -->
<g id="edge6" class="edge">
<title>TeachersModule&#45;&gt;AppModule</title>
<path fill="none" stroke="black" d="M217,-84.91C217,-104.14 217,-131.8 217,-131.8 217,-131.8 437.1,-131.8 437.1,-131.8"/>
<polygon fill="black" stroke="black" points="437.1,-135.3 447.1,-131.8 437.1,-128.3 437.1,-135.3"/>
</g>
<!-- AppService -->
<g id="node8" class="node">
<title>AppService</title>
<ellipse fill="#fdb462" stroke="black" cx="81" cy="-66.8" rx="56.74" ry="18"/>
<text text-anchor="middle" x="81" y="-62.6" font-family="Times,serif" font-size="14.00">AppService</text>
</g>
<!-- AppService&#45;&gt;AppModule -->
<g id="edge7" class="edge">
<title>AppService&#45;&gt;AppModule</title>
<path fill="none" stroke="black" d="M81,-85.09C81,-107.01 81,-140.8 81,-140.8 81,-140.8 437.25,-140.8 437.25,-140.8"/>
<polygon fill="black" stroke="black" points="437.25,-144.3 447.25,-140.8 437.25,-137.3 437.25,-144.3"/>
</g>
</g>
</svg>
